<svg xmlns="http://www.w3.org/2000/svg" viewBox="0 0 367.63 324.65"><defs><style>.cls-1{fill:none;stroke:#000;stroke-linecap:round;stroke-miterlimit:10;stroke-width:8px;}</style></defs><title>Recurso 1SMSC icon</title><g id="Capa_2" data-name="Capa 2"><g id="Layer_1" data-name="Layer 1"><path d="M251.8,0H360.59a7.07,7.07,0,0,1,7,7.05V81.81a7,7,0,0,1-1.22,4,2.78,2.78,0,0,1-.66,1,2.45,2.45,0,0,1-.66.46,7,7,0,0,1-4.5,1.65H251.8a7.07,7.07,0,0,1-7.05-7V7.05a7.07,7.07,0,0,1,7.05-7Zm-1.64,78.84,38.12-38.22L250.16,9.54v69.3ZM292.48,44l-39.3,39.41h105.7l-37.56-39.4L308.93,54.6h0a2.7,2.7,0,0,1-3.45,0L292.48,44Zm32.95-3.49,36.8,38.6V9.2l-36.8,31.35ZM253.62,5.41,307.14,49,358.37,5.41Z"/><path d="M251.8,117.9H360.59a7.05,7.05,0,0,1,7,7V199.7a7,7,0,0,1-1.22,4,2.66,2.66,0,0,1-1.32,1.46,7,7,0,0,1-4.5,1.64H251.8a7.07,7.07,0,0,1-7.05-7.05V124.94a7.05,7.05,0,0,1,7.05-7Zm-1.64,78.84,38.12-38.22-38.12-31.09v69.31Zm42.32-34.8-39.3,39.4h105.7L321.32,162,308.93,172.5h0a2.7,2.7,0,0,1-3.45,0l-13-10.6Zm32.95-3.5,36.8,38.6V127.09l-36.8,31.35ZM253.62,123.3l53.52,43.64,51.23-43.64Z"/><path d="M251.6,235.79H360.39a7.07,7.07,0,0,1,7,7.05V317.6a7,7,0,0,1-1.22,3.95,2.78,2.78,0,0,1-.66,1,2.45,2.45,0,0,1-.66.46,7,7,0,0,1-4.5,1.65H251.6a7.07,7.07,0,0,1-7-7V242.84a7.07,7.07,0,0,1,7-7.05ZM250,314.63l38.12-38.22L250,245.33v69.3Zm42.32-34.79L253,319.24h105.7l-37.56-39.4-12.39,10.55h0a2.7,2.7,0,0,1-3.45.05l-13-10.6Zm33-3.5,36.8,38.6V245l-36.8,31.35ZM253.42,241.2l53.52,43.64,51.23-43.64Z"/><line class="cls-1" x1="177.46" y1="51.93" x2="177.46" y2="284.84"/><line class="cls-1" x1="223.5" y1="51.93" x2="177.46" y2="51.93"/><line class="cls-1" x1="223.5" y1="162.32" x2="127.31" y2="162.32"/><line class="cls-1" x1="223.5" y1="284.84" x2="177.46" y2="284.84"/><circle class="cls-1" cx="53.92" cy="162.94" r="49.92"/><line class="cls-1" x1="79.22" y1="146.23" x2="29.54" y2="146.23"/><line class="cls-1" x1="89.23" y1="164.32" x2="19.52" y2="164.32"/><line class="cls-1" x1="79.22" y1="181.88" x2="29.54" y2="181.88"/></g></g></svg>