<?xml version="1.0" encoding="utf-8"?><svg version="1.1" id="Layer_1" xmlns="http://www.w3.org/2000/svg" xmlns:xlink="http://www.w3.org/1999/xlink" x="0px" y="0px" viewBox="0 0 119.57 122.88" style="enable-background:new 0 0 119.57 122.88" xml:space="preserve"><g><path d="M47.29,75.93c0.04,0.04,0.11,0.08,0.15,0.15l11.71,10.48l47.29-41.3V5.87H12.57v39.04L47.29,75.93L47.29,75.93z M48.89,68.7c-1.46,0-2.65-1.18-2.65-2.65c0-1.46,1.18-2.64,2.65-2.64h21.79c1.46,0,2.65,1.18,2.65,2.64 c0,1.46-1.18,2.65-2.65,2.65H48.89L48.89,68.7z M43.85,56.01c-1.46,0-2.65-1.18-2.65-2.65c0-1.46,1.18-2.65,2.65-2.65h31.86 c1.46,0,2.64,1.18,2.64,2.65c0,1.46-1.18,2.65-2.64,2.65H43.85L43.85,56.01z M21.27,15.82H32.9c2.29,0,4.15,0.31,5.55,0.93 c1.41,0.62,2.58,1.51,3.5,2.68c0.92,1.16,1.58,2.52,2,4.06c0.42,1.54,0.63,3.18,0.63,4.9c0,2.71-0.31,4.81-0.92,6.3 c-0.61,1.49-1.47,2.74-2.56,3.75c-1.1,1.01-2.27,1.68-3.53,2.02c-1.71,0.46-3.27,0.69-4.66,0.69H21.27V15.82L21.27,15.82z M29.08,21.55v13.83h1.92c1.64,0,2.81-0.18,3.5-0.54c0.69-0.36,1.23-1,1.63-1.9c0.4-0.91,0.59-2.37,0.59-4.4 c0-2.68-0.44-4.52-1.32-5.51c-0.88-0.99-2.34-1.49-4.37-1.49H29.08L29.08,21.55z M47.12,15.82h7.31l9.5,13.99V15.82h7.4v25.33h-7.4 l-9.45-13.91v13.91h-7.36V15.82L47.12,15.82z M75,15.82h11.63c2.29,0,4.15,0.31,5.55,0.93c1.41,0.62,2.58,1.51,3.5,2.68 c0.92,1.16,1.58,2.52,2,4.06c0.42,1.54,0.63,3.18,0.63,4.9c0,2.71-0.31,4.81-0.93,6.3c-0.61,1.49-1.47,2.74-2.56,3.75 c-1.09,1-2.27,1.68-3.53,2.02c-1.71,0.46-3.28,0.69-4.66,0.69H75V15.82L75,15.82z M82.82,21.55v13.83h1.92 c1.64,0,2.81-0.18,3.5-0.54c0.69-0.36,1.23-1,1.63-1.9c0.39-0.9,0.59-2.37,0.59-4.4c0-2.68-0.44-4.52-1.32-5.51 c-0.88-0.99-2.34-1.49-4.37-1.49H82.82L82.82,21.55z M114.48,39.45c0.75,0,1.42,0.22,2.09,0.6c0.49,0.3,0.9,0.67,1.27,1.08 c0.97,1.12,1.72,2.88,1.72,4.34v71.68c0,1.57-0.64,2.99-1.68,4.04c-1.05,1.05-2.47,1.68-4.04,1.68H5.72 c-1.57,0-2.99-0.64-4.04-1.68C0.64,120.15,0,118.73,0,117.16V45.47c0-3.41,3.48-7.57,7.07-5.46L7.07,0h104.94 c0.8,0.8,0.08,40.46,0,40.39C112.71,39.79,113.56,39.45,114.48,39.45L114.48,39.45z M57.28,92.32L45.49,81.76l-40,35.06v0.3 c0,0.04,0,0.11,0.04,0.11c0.04,0.04,0.07,0.04,0.11,0.04l108.12,0c0.04,0,0.11,0,0.11-0.04c0.04-0.04,0.04-0.07,0.04-0.11v-0.19 L73.37,81.39l-12.5,10.89c-1.05,0.9-2.62,0.94-3.67-0.04L57.28,92.32L57.28,92.32L57.28,92.32z M41.31,78.06L5.46,46.03v63.41 L41.31,78.06L41.31,78.06L41.31,78.06z M113.96,109.6V46.03L77.63,77.76L113.96,109.6L113.96,109.6L113.96,109.6z"/></g></svg>