<svg xmlns="http://www.w3.org/2000/svg" viewBox="0 0 120.02 123.37"><defs><style>.cls-1{fill:#fff;stroke:#bcbcbc;stroke-miterlimit:10;stroke-width:0.5px;}</style></defs><title>Recurso 2DND</title><g id="Capa_2" data-name="Capa 2"><g id="Capa_1-2" data-name="Capa 1"><g id="Capa_2-2" data-name="Capa 2"><g id="Layer_1" data-name="Layer 1"><path class="cls-1" d="M47.54,76.18a.54.54,0,0,1,.15.15L59.4,86.81l47.29-41.3V6.12H12.82v39l34.72,31ZM49.14,69a2.65,2.65,0,0,1-.33-5.29H70.93A2.65,2.65,0,1,1,71.26,69H49.14Zm-5-12.7a2.65,2.65,0,0,1,0-5.3H76a2.65,2.65,0,1,1,0,5.3ZM21.52,16.07H33.15A14,14,0,0,1,38.7,17a8.93,8.93,0,0,1,3.55,2.68,11,11,0,0,1,2,4.06,18.46,18.46,0,0,1,.63,4.9,17.06,17.06,0,0,1-.92,6.3,10.49,10.49,0,0,1-2.56,3.75,8.52,8.52,0,0,1-3.53,2,18.36,18.36,0,0,1-4.66.69H21.52Zm7.81,5.73V35.63h1.92a8.19,8.19,0,0,0,3.5-.54,3.79,3.79,0,0,0,1.63-1.9,12,12,0,0,0,.59-4.4c0-2.67-.44-4.5-1.32-5.51s-2.34-1.49-4.37-1.49h-2Zm18-5.73h7.31l9.5,14v-14h7.4V41.4h-7.4L54.73,27.49V41.4H47.37V16.07Zm27.88,0H86.88a14,14,0,0,1,5.55.93,9,9,0,0,1,3.5,2.68,11,11,0,0,1,2,4.06,18.46,18.46,0,0,1,.63,4.9,16.86,16.86,0,0,1-.93,6.3,10.49,10.49,0,0,1-2.56,3.75,8.52,8.52,0,0,1-3.53,2,18.36,18.36,0,0,1-4.66.69H75.25V16.07ZM83,21.8V35.63H85a8.19,8.19,0,0,0,3.5-.54,3.79,3.79,0,0,0,1.63-1.9,12,12,0,0,0,.59-4.4c0-2.67-.44-4.5-1.32-5.51S87,21.79,85,21.79H83Zm31.66,17.9a4.16,4.16,0,0,1,2.09.6,6,6,0,0,1,1.27,1.08,7.29,7.29,0,0,1,1.72,4.34V117.4a5.74,5.74,0,0,1-5.72,5.72H6a5.74,5.74,0,0,1-5.72-5.71V45.72c0-3.41,3.48-7.57,7.07-5.47V.25H112.25c.8.8.08,40.46,0,40.39a3.74,3.74,0,0,1,2.47-.94ZM57.53,92.57,45.74,82l-40,35.06v.41a.11.11,0,0,0,.11,0H114.12a.11.11,0,0,0,0-.11v-.19L73.62,81.64,61.12,92.53a2.74,2.74,0,0,1-3.67,0l.08.08Zm-16-14.26L5.71,46.25v63.41L41.56,78.31Zm72.72,31.54V46.25L77.88,78Z"/></g></g></g></g></svg>