<svg xmlns="http://www.w3.org/2000/svg" width="32.925" height="39.426" viewBox="0 0 32.925 39.426">
  <path id="base-station-icon" d="M5.755,18.174a1.1,1.1,0,0,1,.263.78,1.12,1.12,0,0,1-.359.761l-.032.026a1.091,1.091,0,0,1-.783.266,1.133,1.133,0,0,1-.754-.359l-.032-.035A17.524,17.524,0,0,1,.99,14.866,12.037,12.037,0,0,1,0,9.946a12.136,12.136,0,0,1,1.155-4.91A17.566,17.566,0,0,1,4.391.371h0a1.12,1.12,0,0,1,.783-.35,1.088,1.088,0,0,1,.789.321l.019.019a1.152,1.152,0,0,1,.321.757,1.091,1.091,0,0,1-.3.793H5.986a15.567,15.567,0,0,0-2.779,4,9.9,9.9,0,0,0-.995,4.059,10.034,10.034,0,0,0,.847,4.1,15.265,15.265,0,0,0,2.6,4.014.321.321,0,0,1,.064.051l.029.032ZM4.379,35.939H8.229L14.8,12.879a3.613,3.613,0,0,1-.449-.321l-.237-.2A3.35,3.35,0,0,1,13.155,10a3.27,3.27,0,0,1,.254-1.264,3.4,3.4,0,0,1,.709-1.088,3.38,3.38,0,0,1,3.639-.712,3.4,3.4,0,0,1,1.088.719,3.315,3.315,0,0,1,.963,2.355,3.453,3.453,0,0,1-.08.732h0a3.334,3.334,0,0,1-.234.68,3.209,3.209,0,0,1-1.12,1.325l7.255,23.194h2.115v3.485H4.379Zm7.621,0H23.873l-1.431-4.525ZM15.209,17.59l3.5,1.925-1.957-6.248h-.321L15.212,17.6Zm4.4,4.772-5.831,4.095,7.949,2.654-2.115-6.739ZM10.3,34.848l10.14-4.4-8.119-2.7L10.3,34.854Zm2.856-10.005,5.163-3.623L14.74,19.252l-1.6,5.584Zm-3.1-10.371h0a1.1,1.1,0,0,1,.212.783,1.065,1.065,0,0,1-.4.738l-.045.035a1.12,1.12,0,0,1-.777.215,1.081,1.081,0,0,1-.738-.4l-.019-.022a10.667,10.667,0,0,1-1.675-2.827,8.436,8.436,0,0,1-.584-3.013,8.077,8.077,0,0,1,.562-2.984A10.41,10.41,0,0,1,8.274,4.17,1.108,1.108,0,0,1,10,5.56h0A8.266,8.266,0,0,0,8.7,7.736a5.856,5.856,0,0,0,0,4.46,8.587,8.587,0,0,0,1.325,2.243l.032.048Zm18.792,5.173a1.12,1.12,0,0,1-.751.35,1.1,1.1,0,0,1-.8-.279l-.019-.019a1.113,1.113,0,0,1-.35-.748,1.094,1.094,0,0,1,.279-.805l.019-.019a15.278,15.278,0,0,0,2.647-4.059,10.079,10.079,0,0,0,.847-4.117,9.948,9.948,0,0,0-.982-4.069,15.47,15.47,0,0,0-2.8-4l-.026-.026a1.1,1.1,0,0,1-.273-.773A1.13,1.13,0,0,1,26.954.32l.026-.026a1.091,1.091,0,0,1,.783-.3,1.117,1.117,0,0,1,.77.343l.022.022a17.473,17.473,0,0,1,3.212,4.65,12.1,12.1,0,0,1,1.155,4.9,12.085,12.085,0,0,1-.992,4.935,17.254,17.254,0,0,1-3.02,4.682.3.3,0,0,1-.067.1h0ZM24,15.909a1.13,1.13,0,0,1-.677.321,1.106,1.106,0,0,1-.982-1.791h0a8.484,8.484,0,0,0,1.319-2.2,5.927,5.927,0,0,0,0-4.493V7.726a8.228,8.228,0,0,0-1.3-2.156l-.029-.035a1.11,1.11,0,0,1-.193-.767,1.094,1.094,0,0,1,.4-.741l.022-.016a1.1,1.1,0,0,1,.8-.231,1.081,1.081,0,0,1,.725.391l.019.022a10.391,10.391,0,0,1,1.665,2.814,8.077,8.077,0,0,1,.562,2.984,8.385,8.385,0,0,1-.584,3,10.7,10.7,0,0,1-1.681,2.859.452.452,0,0,1-.058.055Z" transform="translate(0.002 0.002)" fill="#fff"/>
</svg>
