<svg width="48" height="43" viewBox="0 0 48 43" fill="none" xmlns="http://www.w3.org/2000/svg">
<path fill-rule="evenodd" clip-rule="evenodd" d="M6.09815 4.99259V30.0884H41.8706V4.99259H6.09815ZM9.56718 25.7326C9.19215 25.7326 8.88353 25.4278 8.88353 25.0489C8.88353 24.6739 9.18825 24.3653 9.56718 24.3653H13.8839V14.1496C13.8839 14.0715 13.9152 13.9972 13.9699 13.9464C13.9816 13.9347 13.9933 13.9269 14.005 13.9152C14.0519 13.88 14.1105 13.8605 14.173 13.8605H16.3529C16.431 13.8605 16.5052 13.8918 16.556 13.9464C16.5678 13.9582 16.5795 13.9738 16.5873 13.9855C16.6185 14.0324 16.6381 14.0871 16.6381 14.1496V24.3692H19.7164V17.1967C19.7164 17.1186 19.7477 17.0444 19.8024 16.9936C19.8532 16.9428 19.9274 16.9076 20.0055 16.9076H22.1854C22.2674 16.9076 22.3378 16.9389 22.3885 16.9936C22.4393 17.0444 22.4745 17.1186 22.4745 17.1967V24.3692H25.5529V11.1025C25.5529 11.0243 25.5841 10.9501 25.6388 10.8993C25.6896 10.8485 25.7638 10.8134 25.8419 10.8134H28.0218C28.0999 10.8134 28.1742 10.8446 28.225 10.8993C28.2757 10.9501 28.3109 11.0243 28.3109 11.1025V24.3692H31.3893V15.0208C31.3893 14.9426 31.4205 14.8684 31.4752 14.8176C31.526 14.7668 31.6002 14.7317 31.6784 14.7317H33.8582C33.9364 14.7317 34.0067 14.7629 34.0614 14.8176C34.1122 14.8684 34.1473 14.9426 34.1473 15.0208V24.3692H37.171C37.546 24.3692 37.8546 24.6739 37.8546 25.0528C37.8546 25.4278 37.5499 25.7365 37.171 25.7365H9.56718V25.7326ZM22.9198 35.538C22.9941 35.4677 23.08 35.4091 23.1699 35.3701V31.8229H0.867258C0.38675 31.8229 0 31.4322 0 30.9556C0 30.4751 0.38675 30.0884 0.867258 30.0884H4.35973V4.99259H0.867258C0.38675 4.99259 0 4.60194 0 4.12534C0 3.64483 0.38675 3.25808 0.867258 3.25808H23.0409V0.914137C23.0409 0.41019 23.4511 0 23.9551 0C24.459 0 24.8692 0.41019 24.8692 0.914137V3.25808H47.0429C47.5234 3.25808 47.9101 3.64483 47.9101 4.12534C47.9101 4.60584 47.5234 4.99259 47.0429 4.99259H43.6012V30.0884H47.1327C47.6132 30.0884 48 30.4751 48 30.9556C48 31.4361 47.6132 31.8229 47.1327 31.8229H24.9981V35.4677C25.0255 35.4912 25.0567 35.5146 25.0802 35.538L30.1978 40.4017C30.565 40.7494 30.5767 41.3276 30.229 41.6948C29.8813 42.062 29.3032 42.0737 28.9359 41.726L24.9942 37.9797V41.2924C24.9942 41.7964 24.584 42.2066 24.0801 42.2066C23.5761 42.2066 23.1659 41.7964 23.1659 41.2924V37.8234L19.0601 41.726C18.6929 42.0737 18.1148 42.0581 17.7671 41.6948C17.4194 41.3276 17.435 40.7494 17.7983 40.4017L22.9198 35.538Z" fill="white"/>
</svg>
