<svg id="globe-network-icon_2_" data-name="globe-network-icon (2)" xmlns="http://www.w3.org/2000/svg" width="36.992" height="36.992" viewBox="0 0 36.992 36.992">
  <path id="Trazado_13" data-name="Trazado 13" d="M1.744,18.937q1.244,1.109,2.488,2.1A33.644,33.644,0,0,1,7.82,16.465a3.318,3.318,0,0,1-.286-2.347c-1.356-.878-2.751-1.858-4.2-2.95A16.746,16.746,0,0,0,1.654,18.5h0c0,.178,0,.356.009.533l.081-.092ZM4.132,9.7c1.454,1.1,2.846,2.08,4.2,2.96a3.3,3.3,0,0,1,4.41-.366q.6-.4,1.215-.76A26.957,26.957,0,0,1,19.5,9.075a3.708,3.708,0,0,1,.263-1.819,33.916,33.916,0,0,0-7.135-4.547A16.932,16.932,0,0,0,4.132,9.7Zm10.8-7.67a34.2,34.2,0,0,1,5.8,3.874,3.675,3.675,0,0,1,2.077-.9q.266-1.3.5-2.655a16.821,16.821,0,0,0-4.813-.7v0h0v0a16.878,16.878,0,0,0-3.562.38Zm9.957.881q-.21,1.174-.44,2.311a3.7,3.7,0,0,1,2.266,2.494,39.811,39.811,0,0,1,4.667-.06q-.468-.555-.98-1.07A16.88,16.88,0,0,0,24.89,2.914Zm7.774,6.48a39.3,39.3,0,0,0-5.889-.019A3.679,3.679,0,0,1,25.64,11.4a22.335,22.335,0,0,1,1.328,2.344,22.93,22.93,0,0,1,1.427,3.719,3.4,3.4,0,0,1,.348-.018,3.3,3.3,0,0,1,3.151,2.32c1.092.038,2.22.058,3.392.066.035-.44.053-.884.053-1.333h0a16.756,16.756,0,0,0-2.674-9.1Zm2.409,12.084q-1.6-.011-3.1-.059A3.3,3.3,0,0,1,29.4,23.977a35.693,35.693,0,0,1-.163,4.833q1.417-.149,2.878-.409a16.753,16.753,0,0,0,2.96-6.922Zm-2.009,8.411,0,.017-.02,0A18.476,18.476,0,0,1,18.5,36.989v0h0v0A18.487,18.487,0,0,1,0,18.5H0A18.487,18.487,0,0,1,18.5,0V0h0V0A18.487,18.487,0,0,1,36.989,18.5h0a18.414,18.414,0,0,1-3.923,11.392Zm-2.588.437q-.726.1-1.44.166-.089.639-.2,1.291A16.873,16.873,0,0,0,30.4,30.4l.074-.077Zm-3.558,2.754q.253-1.258.43-2.463a33.406,33.406,0,0,1-8.69-.65,2.967,2.967,0,0,1-2.273,1.06c-.068,0-.135,0-.2-.007-.527,1.343-1.036,2.649-1.5,3.883a16.88,16.88,0,0,0,3.813.435v0h0v0a16.744,16.744,0,0,0,8.422-2.259ZM13.09,34.45c.511-1.36,1.022-2.672,1.541-4a2.969,2.969,0,0,1-1.2-2.065A39.184,39.184,0,0,1,4.669,23.45q-.69,1.162-1.322,2.41A16.918,16.918,0,0,0,13.09,34.45ZM2.531,23.869q.4-.727.817-1.425-.736-.579-1.471-1.2a16.731,16.731,0,0,0,.654,2.625ZM13.761,13.6a3.3,3.3,0,0,1,.148,2.229,37.445,37.445,0,0,0,5.4,2.1c.656-1.965,1.287-4.005,1.874-6.14a3.7,3.7,0,0,1-1.144-1.15,25.288,25.288,0,0,0-5.25,2.323c-.347.2-.691.418-1.027.639Zm-.7,3.658a3.3,3.3,0,0,1-4.125.429A32.169,32.169,0,0,0,5.546,22.04a37.9,37.9,0,0,0,8.18,4.686,2.975,2.975,0,0,1,2.66-1.643,2.942,2.942,0,0,1,.331.019c.691-1.807,1.384-3.67,2.057-5.608a39.022,39.022,0,0,1-5.712-2.236Zm11.132-5.043a3.706,3.706,0,0,1-1.036.147,3.587,3.587,0,0,1-.412-.023c-.579,2.1-1.2,4.1-1.841,6.03a42.06,42.06,0,0,0,4.875.918,3.306,3.306,0,0,1,1.059-1.238,21.3,21.3,0,0,0-1.361-3.579,20.663,20.663,0,0,0-1.285-2.255ZM27.74,23.887a3.3,3.3,0,0,1-2.293-2.977,43.482,43.482,0,0,1-5.076-.97c-.7,2.006-1.411,3.932-2.126,5.8a2.967,2.967,0,0,1,1.112,2.318,3.039,3.039,0,0,1-.023.365,32.052,32.052,0,0,0,8.225.529,34.259,34.259,0,0,0,.18-5.061Z" fill="#fff"/>
</svg>
