<svg id="computer-report-icon_1_" data-name="computer-report-icon (1)" xmlns="http://www.w3.org/2000/svg" width="122.88" height="101.9" viewBox="0 0 122.88 101.9">
    <path id="Trazado_57" data-name="Trazado 57" d="M3.34,0h116.2a3.346,3.346,0,0,1,3.34,3.34V80.32a3.346,3.346,0,0,1-3.34,3.34H3.34A3.346,3.346,0,0,1,0,80.32V3.34A3.346,3.346,0,0,1,3.34,0ZM91.58,27.97l10.5.03a10.541,10.541,0,0,1-3.13,7.45,10.924,10.924,0,0,1-1.54,1.25l-5.83-8.73ZM31.13,19.72h3.2a.312.312,0,0,1,.31.31v11.4a.312.312,0,0,1-.31.31h-3.2a.312.312,0,0,1-.31-.31V20.03a.312.312,0,0,1,.31-.31ZM16.65,15.87h3.2a.312.312,0,0,1,.31.31V31.44a.312.312,0,0,1-.31.31h-3.2a.312.312,0,0,1-.31-.31V16.18a.312.312,0,0,1,.31-.31Zm7.24-2.17h3.2a.312.312,0,0,1,.31.31V31.44a.312.312,0,0,1-.31.31h-3.2a.312.312,0,0,1-.31-.31V14.01a.312.312,0,0,1,.31-.31ZM16.84,61.37a1.266,1.266,0,0,1-1.26-1.28,1.278,1.278,0,0,1,1.26-1.28h89.41a1.266,1.266,0,0,1,1.26,1.28,1.278,1.278,0,0,1-1.26,1.28Zm-.21-9.3a1.266,1.266,0,0,1-1.26-1.28,1.278,1.278,0,0,1,1.26-1.28H52.48a1.266,1.266,0,0,1,1.26,1.28,1.278,1.278,0,0,1-1.26,1.28Zm40.77,0a1.266,1.266,0,0,1-1.26-1.28,1.278,1.278,0,0,1,1.26-1.28h48.85a1.266,1.266,0,0,1,1.26,1.28,1.278,1.278,0,0,1-1.26,1.28ZM16.63,43.76a1.266,1.266,0,0,1-1.26-1.28,1.278,1.278,0,0,1,1.26-1.28H70.79a1.266,1.266,0,0,1,1.26,1.28,1.278,1.278,0,0,1-1.26,1.28ZM90.5,25.88l-.56-11.23a.4.4,0,0,1,.38-.42c.06,0,.14-.01.23-.01h.23a11.652,11.652,0,0,1,11.76,10.83.4.4,0,0,1-.37.43l-11.23.8a.4.4,0,0,1-.43-.37.037.037,0,0,1-.01-.03Zm.26-10.86.52,10.43,10.42-.74a10.86,10.86,0,0,0-10.92-9.68l-.02-.01ZM89.24,27.48l5.63,9.75a11.259,11.259,0,1,1-7.26-20.89l1.63,11.14ZM46.29,88.27h30.3c.08,5.24,2.24,9.94,8.09,13.63H38.2c4.68-3.39,8.11-7.51,8.09-13.63ZM61.44,72.41a4.29,4.29,0,1,1-4.29,4.29,4.289,4.289,0,0,1,4.29-4.29ZM10.05,6.29H112.84a2.955,2.955,0,0,1,2.95,2.95V66.76a2.962,2.962,0,0,1-2.95,2.95H10.05A2.962,2.962,0,0,1,7.1,66.76V9.24a2.949,2.949,0,0,1,2.95-2.95Z" fill="#7B3031" fill-rule="evenodd"/>
</svg>