<svg id="website-hosting-icon" xmlns="http://www.w3.org/2000/svg" width="44.207" height="45.012" viewBox="0 0 44.207 45.012">
  <path id="Trazado_15" data-name="Trazado 15" d="M14.844,0H42.3a1.914,1.914,0,0,1,1.347.56v0h0a1.914,1.914,0,0,1,.56,1.347V28.2A1.913,1.913,0,0,1,42.3,30.113H32.662c-.007-.582-.04-1.161-.1-1.728H42.3a.188.188,0,0,0,.183-.183V6.855h0a1,1,0,0,1-.183.015H14.844a1.482,1.482,0,0,1-.183-.015v5.478c-.582,0-1.161.029-1.728.084V1.911A1.91,1.91,0,0,1,13.493.56c.022-.022.04-.04.062-.059A1.908,1.908,0,0,1,14.844,0ZM26.031,36.726c.048-.084.1-.176.146-.267l0,0c.059-.11.114-.22.168-.326s.121-.245.179-.373.117-.256.172-.381l.022-.04c.081-.194.157-.384.227-.579s.139-.392.2-.593v0c.062-.2.117-.4.168-.6s.1-.414.139-.622c.033-.168.062-.33.088-.491s.048-.326.07-.494v0c.018-.146.033-.3.048-.45.011-.121.018-.242.026-.359h-3.6a11.926,11.926,0,0,1-.154,1.4,11.667,11.667,0,0,1-.352,1.476,14.732,14.732,0,0,1-.524,1.435q-.275.643-.626,1.285l3.6,0Zm-1.091,1.662H21.41c-.3.425-.619.849-.959,1.267s-.736.868-1.142,1.3q-.56.6-1.2,1.2c-.344.326-.7.652-1.073.974l.3-.055c.205-.04.41-.088.619-.143s.414-.11.615-.172.4-.132.6-.205.4-.154.593-.238.4-.176.59-.267.381-.19.571-.293.373-.205.549-.315.359-.22.527-.337.344-.234.509-.359.33-.249.487-.381.315-.264.469-.406.3-.282.45-.432c.114-.117.227-.231.337-.348s.216-.234.319-.355c.084-.1.165-.194.245-.293l.121-.139Zm-12.6,4.738c-.373-.322-.732-.648-1.077-.974q-.632-.6-1.194-1.2-.61-.648-1.142-1.3-.516-.632-.959-1.267H4.445l.117.146c.081.1.165.2.245.293.209.238.428.472.655.7l0,.007q.22.22.45.428c.154.139.311.275.469.4s.322.256.487.381.337.242.509.359.348.227.531.337.363.212.542.311.381.2.575.293.388.179.59.267a.273.273,0,0,1,.044.026c.194.081.384.154.579.227s.392.139.593.2h0c.2.062.4.117.6.168s.414.1.622.139l.275.051Zm-9-6.393h3.6c-.234-.432-.443-.86-.63-1.293A13.372,13.372,0,0,1,5.778,34a12.484,12.484,0,0,1-.348-1.476,11.094,11.094,0,0,1-.154-1.388h-3.6c.007.117.018.238.026.359.015.154.029.308.048.454.022.172.044.337.07.494s.055.322.088.491l0,.015c.04.205.088.41.139.619s.11.414.172.615.132.4.205.6.154.4.238.593l0,.007c.051.121.106.245.165.37l0,0c.055.117.114.238.172.362s.114.227.172.337c.051.088.1.179.15.271Zm-1.655-7.25H5.313a12.017,12.017,0,0,1,.205-1.377,13.7,13.7,0,0,1,.4-1.472l0-.007a14.2,14.2,0,0,1,.564-1.435c.2-.436.417-.871.663-1.307H3.336c-.051.092-.1.187-.15.275-.059.106-.114.22-.172.337l0,0c-.062.121-.117.242-.176.363s-.114.249-.165.373l-.011.022-.015.022c-.081.19-.154.384-.227.579s-.139.4-.2.593-.121.4-.172.611-.1.414-.139.622c-.033.168-.062.333-.088.491s-.051.326-.07.494c-.018.15-.033.3-.048.454,0,.121-.015.242-.018.359Zm2.75-7.25H8.184c.3-.421.611-.839.948-1.26s.721-.864,1.113-1.3c.366-.4.758-.806,1.168-1.212.337-.333.692-.67,1.058-1l-.154.026-.264.051c-.205.04-.414.088-.622.143s-.414.11-.619.172-.4.132-.6.205-.4.154-.593.238-.4.179-.59.271-.381.19-.568.289-.373.209-.553.315-.355.22-.524.333-.344.238-.509.359-.33.249-.487.381-.315.264-.469.406-.3.282-.45.432l-.007,0q-.17.17-.33.341c-.11.117-.216.234-.319.355-.084.1-.168.194-.249.3l-.132.157Zm12.479-4.76q.549.5,1.055,1c.41.4.795.806,1.161,1.2q.593.648,1.113,1.3c.337.421.652.839.945,1.26h3.746l-.117-.15c-.081-.1-.161-.194-.245-.293-.1-.117-.209-.238-.319-.355s-.216-.227-.337-.348c-.15-.15-.3-.3-.454-.432s-.311-.275-.469-.4-.322-.256-.487-.381-.337-.242-.509-.359-.348-.227-.527-.337-.363-.212-.549-.315-.377-.2-.568-.289-.388-.179-.593-.267a.273.273,0,0,1-.044-.026c-.194-.081-.388-.157-.579-.227s-.392-.139-.593-.2h0c-.2-.062-.4-.117-.6-.172s-.41-.1-.622-.139l-.264-.051-.135-.018Zm9.121,6.412h-3.8c.245.436.465.871.659,1.3a14.665,14.665,0,0,1,.564,1.443,12.892,12.892,0,0,1,.4,1.472,12.018,12.018,0,0,1,.205,1.377h3.629c-.007-.117-.018-.238-.026-.359-.015-.154-.029-.3-.048-.454-.022-.172-.044-.337-.07-.494s-.055-.322-.088-.491l0-.015c-.04-.205-.088-.41-.143-.619s-.11-.414-.172-.615-.132-.4-.205-.6-.154-.4-.234-.59l0-.011c-.051-.121-.106-.245-.165-.37l0,0c-.051-.114-.11-.234-.172-.362s-.117-.231-.172-.333c-.04-.084-.092-.179-.146-.275ZM11.739,15.917c.242-.048.483-.092.721-.128s.48-.066.729-.092.5-.044.747-.055.505-.018.754-.018c.5,0,1,.026,1.494.073.249.026.491.055.732.092s.48.077.725.128.469.1.7.157.461.124.692.194.454.146.677.227.443.168.663.264a.26.26,0,0,1,.066.029c.209.092.417.187.63.289s.425.212.626.322l0,0q.313.17.615.352l0,0c.205.124.406.249.6.381s.381.26.568.4.37.282.553.428.359.3.535.461.352.326.516.491l.007.007c.165.161.326.33.48.5s.308.348.458.531.289.363.428.553.275.384.406.579l0,0c.132.2.256.4.377.59s.242.406.355.619.22.417.322.633.205.436.3.655.187.447.271.677.161.458.234.692.139.465.2.7.114.469.161.71.092.48.128.721.066.483.092.732.044.5.055.747.018.505.018.754-.007.5-.018.751-.029.494-.055.743-.055.494-.092.732v0c-.037.234-.077.476-.128.718s-.1.469-.157.7-.124.461-.194.692-.146.454-.227.677-.168.443-.264.659a.243.243,0,0,1-.033.07c-.092.216-.19.428-.293.641s-.212.421-.326.63-.234.417-.352.615-.245.4-.377.593-.26.381-.4.571-.282.37-.428.549l0,0c-.15.183-.3.362-.461.535l0,0c-.161.176-.322.344-.483.509l-.011.011c-.165.165-.33.326-.5.48s-.348.308-.527.458-.363.289-.553.432-.381.275-.575.4-.392.26-.593.381-.41.242-.622.355-.421.22-.633.326-.436.205-.652.3-.45.187-.677.271-.458.161-.692.234-.461.135-.7.194-.469.114-.714.161-.48.092-.721.128-.483.066-.732.092c-.5.048-1,.073-1.5.073-.249,0-.5-.007-.751-.018s-.494-.029-.743-.055-.494-.055-.732-.092-.48-.077-.721-.128-.469-.1-.7-.157-.461-.124-.688-.194-.45-.146-.674-.227-.447-.172-.67-.264a.477.477,0,0,1-.062-.029c-.209-.092-.421-.187-.63-.289S7.9,43.35,7.7,43.24s-.414-.231-.615-.352-.414-.253-.611-.384-.381-.26-.568-.4-.37-.282-.549-.428-.363-.3-.538-.465-.352-.326-.513-.487L4.3,40.717c-.165-.165-.326-.33-.48-.5s-.308-.348-.458-.527-.293-.366-.432-.557-.275-.381-.4-.575-.256-.392-.381-.593-.242-.41-.355-.622-.22-.417-.326-.633-.205-.436-.3-.652-.187-.45-.271-.677-.161-.458-.234-.692-.135-.461-.194-.7S.352,33.522.3,33.277s-.092-.483-.128-.725-.066-.48-.092-.729-.044-.5-.055-.747C.007,30.809,0,30.56,0,30.311c0-.5.026-1,.073-1.494.026-.249.055-.491.092-.732s.077-.48.128-.725.1-.465.157-.7.124-.461.194-.692.146-.454.227-.677.168-.439.26-.659a.309.309,0,0,1,.022-.051l.011-.018c.092-.216.19-.432.293-.644s.212-.421.326-.63.234-.417.352-.615.245-.4.377-.593.26-.381.4-.568.282-.37.428-.549.3-.359.461-.535.326-.352.491-.516L4.3,19.9c.165-.165.333-.326.5-.483s.348-.308.531-.458.366-.293.553-.428l.007,0c.19-.139.381-.275.571-.4s.392-.26.593-.381.41-.242.622-.355.417-.22.633-.322.436-.205.652-.3l.007,0c.227-.1.45-.187.674-.267s.458-.161.692-.234.465-.139.7-.2.469-.114.71-.161l-.007,0Zm3.771,2.516v3.8h3.625c-.223-.286-.461-.571-.707-.86-.289-.337-.6-.677-.919-1.014s-.67-.685-1.029-1.033c-.311-.289-.633-.59-.97-.89Zm0,5.452v5.6H22.4a10.146,10.146,0,0,0-.22-1.3,11.655,11.655,0,0,0-.425-1.41,14.319,14.319,0,0,0-.637-1.457,15.773,15.773,0,0,0-.817-1.428H15.511Zm0,7.254v5.6h5.013a14.909,14.909,0,0,0,.78-1.4,12.033,12.033,0,0,0,.593-1.446,11.3,11.3,0,0,0,.373-1.421,10.239,10.239,0,0,0,.165-1.326H15.511Zm0,7.25v3.867c.359-.3.7-.6,1.036-.908.381-.348.743-.7,1.088-1.04s.666-.692.974-1.036c.26-.293.509-.59.743-.882Zm-1.655,3.867v-3.87H10.018c.234.3.483.59.74.882.3.344.626.688.97,1.033s.707.692,1.088,1.04c.33.311.677.611,1.04.915Zm0-5.522V31.139H6.931A10.25,10.25,0,0,0,7.1,32.464a10.773,10.773,0,0,0,.377,1.424,11.792,11.792,0,0,0,.593,1.446,14.417,14.417,0,0,0,.776,1.4h5.009Zm0-7.25v-5.6h-4.8q-.456.714-.817,1.428a14.319,14.319,0,0,0-.637,1.457,12.352,12.352,0,0,0-.425,1.41,10.829,10.829,0,0,0-.22,1.3h6.895Zm0-7.25v-3.8c-.337.3-.659.6-.967.893-.363.344-.707.692-1.033,1.033s-.63.677-.919,1.014c-.245.286-.483.575-.707.86h3.625Zm17.492,1.322h7.3a.794.794,0,0,1,0,1.582H31.907q-.242-.807-.56-1.582Zm-1.853-3.438a.622.622,0,0,1,.187-.026h8.964a.794.794,0,0,1,0,1.582H30.457c-.3-.535-.615-1.055-.963-1.556ZM17.411,8.85H39.289v8.565H27.213a17.937,17.937,0,0,0-9.8-4.881V8.85ZM25.69,2.472a1.241,1.241,0,1,1-1.241,1.241A1.242,1.242,0,0,1,25.69,2.472Zm-4.343,0a1.241,1.241,0,1,1-1.241,1.241,1.242,1.242,0,0,1,1.241-1.241ZM17,2.472A1.241,1.241,0,1,1,15.76,3.713,1.242,1.242,0,0,1,17,2.472Z" fill="#fff" fill-rule="evenodd"/>
</svg>
