<svg id="browser-error-icon" xmlns="http://www.w3.org/2000/svg" width="44.207" height="35.371" viewBox="0 0 44.207 35.371">
  <path id="Trazado_16" data-name="Trazado 16" d="M2.993,0h38.22a3,3,0,0,1,2.993,2.993V32.378a3,3,0,0,1-2.993,2.993H2.993a3.006,3.006,0,0,1-2.993-3V2.993A3,3,0,0,1,2.993,0ZM22.7,14.43l8.31,13.048c.252.392.468,1.2,0,1.2H13.2c-.468,0-.252-.806,0-1.2L21.5,14.43a.757.757,0,0,1,1.2,0ZM21.377,25.215h1.446V26.5H21.377V25.215Zm1.446-.885H21.377c-.144-1.756-.446-2.871-.446-4.626a1.173,1.173,0,1,1,2.346,0c0,1.752-.306,2.871-.453,4.626ZM42.44,8.379H1.9V32.666a.827.827,0,0,0,.241.586.806.806,0,0,0,.586.241H41.6a.827.827,0,0,0,.586-.241.812.812,0,0,0,.241-.586V8.379ZM38.364,3.364a1.479,1.479,0,1,1-1.479,1.479,1.479,1.479,0,0,1,1.479-1.479Zm-10.016,0A1.479,1.479,0,1,1,26.87,4.842a1.479,1.479,0,0,1,1.479-1.479Zm5.008,0a1.479,1.479,0,1,1-1.479,1.479,1.479,1.479,0,0,1,1.479-1.479Z" fill="#fff" fill-rule="evenodd"/>
</svg>
