<svg xmlns="http://www.w3.org/2000/svg" width="36.992" height="57.897" viewBox="0 0 36.992 57.897">
  <g id="Grupo_3" data-name="Grupo 3" transform="translate(-1387 -435.33)">
    <path id="business-rules-icon" d="M10.254,36.779a.66.66,0,0,1,.942,0,.679.679,0,0,1,0,.954l-1.144,1.144L11.2,40.022a.669.669,0,1,1-.946.946L9.106,39.824,7.962,40.968a.664.664,0,0,1-.938,0,.679.679,0,0,1,0-.954L8.168,38.87,7.023,37.725a.668.668,0,0,1,0-.946.656.656,0,0,1,.935,0L9.1,37.924l1.144-1.144Zm-2.369-17.6H2.163a.233.233,0,0,0-.221.229V50.875a.229.229,0,0,0,.221.225H34.825a.229.229,0,0,0,.221-.225V19.407a.233.233,0,0,0-.221-.225H29.1V17.244h5.722a2.167,2.167,0,0,1,2.167,2.167V50.879a2.171,2.171,0,0,1-2.167,2.167H2.167A2.171,2.171,0,0,1,0,50.879V19.407A2.167,2.167,0,0,1,2.167,17.24H7.889v1.938ZM29.447,46.3a.98.98,0,1,0,0-1.957H16.4a.98.98,0,1,0,0,1.957Zm0-13.092a.98.98,0,1,0,0-1.961H16.4a.98.98,0,1,0,0,1.961Zm0,6.607a.98.98,0,1,0,0-1.957H16.4a.98.98,0,1,0,0,1.957ZM7.092,45.275a.87.87,0,1,1,1.446-.965l.473.729,1.877-2.289a.87.87,0,0,1,1.343,1.1l-2.6,3.162a1.145,1.145,0,0,1-.21.2.874.874,0,0,1-1.205-.24L7.092,45.3ZM7.328,31.95a.877.877,0,0,1,1.209.24l.473.7L10.887,30.6a.87.87,0,1,1,1.343,1.1l-2.6,3.159a.946.946,0,0,1-.21.2.866.866,0,0,1-1.205-.24L7.092,33.155h0a.874.874,0,0,1,.237-1.209Z" transform="translate(1387 440.182)" fill="#fff" fill-rule="evenodd"/>
    <g id="local-network-pc-icon" transform="translate(1395.312 455.196)">
      <path id="Trazado_11" data-name="Trazado 11" d="M1.72,83.371A1.72,1.72,0,1,1,0,85.091a1.72,1.72,0,0,1,1.72-1.72Zm7.57-3.4h-6.8v1.99a.768.768,0,1,1-1.536,0V79.428a.658.658,0,0,1,.009-.115A.986.986,0,0,1,.952,79.2a.767.767,0,0,1,.768-.768H9.249c-.007-.561-.014-1.578-.02-2.1h1.862c.02.576.036,1.6.043,2.1h7.511a.769.769,0,0,1,.768.768.736.736,0,0,0,0,.23v2.529a.768.768,0,1,1-1.536,0v-1.99H11.132v1.745a.921.921,0,1,1-1.842,0V79.966Zm9.358,3.4a1.72,1.72,0,1,1-1.72,1.72,1.72,1.72,0,0,1,1.72-1.72Zm-8.493,0a1.72,1.72,0,1,1-1.72,1.72,1.72,1.72,0,0,1,1.72-1.72Z" transform="translate(0 -76.33)" fill="#fff" fill-rule="evenodd"/>
    </g>
    <g id="mobile-icon" transform="translate(1400.227 435.33)">
      <path id="Trazado_12" data-name="Trazado 12" d="M1.581,0H8.956a1.587,1.587,0,0,1,1.582,1.581V16.173a1.586,1.586,0,0,1-1.581,1.581H1.582A1.585,1.585,0,0,1,0,16.175V1.582A1.587,1.587,0,0,1,1.581,0ZM5.268,14.464a1.024,1.024,0,1,1-1.024,1.024,1.025,1.025,0,0,1,1.024-1.024ZM3.637,1.28H6.9a.044.044,0,0,1,.043.043V1.8a.044.044,0,0,1-.043.043H3.637A.043.043,0,0,1,3.594,1.8h0V1.324h0a.043.043,0,0,1,.043-.043ZM1.394,3.111H9.144a.259.259,0,0,1,.257.257V13.484a.26.26,0,0,1-.257.257H1.394a.259.259,0,0,1-.257-.257V3.367a.257.257,0,0,1,.257-.256Z" fill="#fff" fill-rule="evenodd"/>
    </g>
  </g>
</svg>
