<svg id="desktop-smartphone-transfer-icon" xmlns="http://www.w3.org/2000/svg" width="44.207" height="33.947" viewBox="0 0 44.207 33.947">
  <path id="Trazado_10" data-name="Trazado 10" d="M32.511,9.526h9.167a2.53,2.53,0,0,1,2.529,2.529V31.417a2.53,2.53,0,0,1-2.529,2.529H32.511a2.53,2.53,0,0,1-2.529-2.529V12.052a2.524,2.524,0,0,1,2.529-2.525ZM40.778,20.56l-4.256.849.86-1.274a4.279,4.279,0,0,0-4.67-1.331A4.585,4.585,0,0,1,39.1,17.592l.878-1.3.8,4.267ZM20.614,14.178l4.256-.849L24.01,14.6a4.279,4.279,0,0,0,4.67,1.331,4.585,4.585,0,0,1-6.386,1.212l-.878,1.3-.8-4.267ZM1.1,0H39.275a1.1,1.1,0,0,1,1.1,1.1V7.731H38.041V3.27a.974.974,0,0,0-.971-.971H3.3a.974.974,0,0,0-.971.971V21.934a.974.974,0,0,0,.971.971H27.593v4.58H1.1a1.1,1.1,0,0,1-1.1-1.1V1.1A1.1,1.1,0,0,1,1.1,0ZM25.161,29a5.109,5.109,0,0,0,2.659,4.479H12.552A5.415,5.415,0,0,0,15.21,29Zm-4.975-5.213a1.41,1.41,0,1,1-1.41,1.41,1.41,1.41,0,0,1,1.41-1.41Zm16.9,7.051a1.04,1.04,0,1,1-1.04,1.04,1.038,1.038,0,0,1,1.04-1.04Zm-6.044-.791H43.138V12.976H31.047v17.07Z" fill="#fff" fill-rule="evenodd"/>
</svg>
