<svg id="settings-icon" xmlns="http://www.w3.org/2000/svg" width="44.207" height="34.208" viewBox="0 0 44.207 34.208">
  <path id="Trazado_17" data-name="Trazado 17" d="M23.962,3.481a1.4,1.4,0,0,0-2.009,0L20.423,5.007a10.17,10.17,0,0,0-1.3-.705,13.51,13.51,0,0,0-1.386-.54V1.414a1.361,1.361,0,0,0-.41-1,1.359,1.359,0,0,0-1-.41H13.379a1.375,1.375,0,0,0-.989.41,1.353,1.353,0,0,0-.42,1V3.563A10.623,10.623,0,0,0,10.54,4a11.039,11.039,0,0,0-1.318.608L7.527,2.94a1.3,1.3,0,0,0-.98-.425,1.389,1.389,0,0,0-1,.425L3.481,5.007a1.4,1.4,0,0,0,0,2.008L5.007,8.546a10.183,10.183,0,0,0-.7,1.3,13.586,13.586,0,0,0-.541,1.386H1.415a1.361,1.361,0,0,0-1,.41,1.364,1.364,0,0,0-.41,1V15.59a1.379,1.379,0,0,0,.41.99,1.354,1.354,0,0,0,1,.42H3.563A10.614,10.614,0,0,0,4,18.429a13.148,13.148,0,0,0,.608,1.347L2.94,21.441a1.3,1.3,0,0,0-.425.981,1.388,1.388,0,0,0,.425,1l2.067,2.091a1.47,1.47,0,0,0,2.009,0l1.53-1.555a10.306,10.306,0,0,0,1.3.705,13.626,13.626,0,0,0,1.386.54v2.347a1.4,1.4,0,0,0,1.415,1.415H15.59a1.374,1.374,0,0,0,.99-.411,1.352,1.352,0,0,0,.42-1V25.406a10.535,10.535,0,0,0,1.429-.44,12.96,12.96,0,0,0,1.347-.608l1.666,1.671a1.372,1.372,0,0,0,1.985,0l2.091-2.066a1.47,1.47,0,0,0,0-2.009l-1.555-1.531a10.235,10.235,0,0,0,.705-1.3,13.711,13.711,0,0,0,.54-1.386h2.347a1.4,1.4,0,0,0,1.414-1.415V13.379a1.377,1.377,0,0,0-.411-.99,1.351,1.351,0,0,0-1-.42H25.406a11.877,11.877,0,0,0-.44-1.414,10.576,10.576,0,0,0-.608-1.333l1.671-1.694a1.3,1.3,0,0,0,.425-.98,1.387,1.387,0,0,0-.425-1L23.962,3.481Zm16.3,15.82a.753.753,0,0,0-.585-.135.745.745,0,0,0-.5.325l-.686.972a5.629,5.629,0,0,0-.771-.259,7.207,7.207,0,0,0-.8-.162l-.222-1.273a.772.772,0,0,0-.9-.633l-1.6.278a.76.76,0,0,0-.5.316.741.741,0,0,0-.133.585l.2,1.165a5.719,5.719,0,0,0-.733.373,5.931,5.931,0,0,0-.658.455L31.3,20.562a.718.718,0,0,0-.572-.138.765.765,0,0,0-.5.325L29.3,22.066a.77.77,0,0,0,.19,1.089l.972.686a5.564,5.564,0,0,0-.259.771,7.225,7.225,0,0,0-.163.8l-1.273.222a.772.772,0,0,0-.633.9l.278,1.6a.756.756,0,0,0,.317.5.742.742,0,0,0,.584.133l1.165-.2a5.848,5.848,0,0,0,.373.734,7.148,7.148,0,0,0,.458.672l-.749,1.062a.715.715,0,0,0-.138.572.762.762,0,0,0,.325.5l1.319.938a.809.809,0,0,0,1.089-.19l.683-.988a5.5,5.5,0,0,0,.771.259,7.152,7.152,0,0,0,.8.162l.222,1.274a.773.773,0,0,0,.9.633l1.6-.279a.76.76,0,0,0,.5-.316.742.742,0,0,0,.132-.584l-.2-1.166a5.731,5.731,0,0,0,.734-.373,7.388,7.388,0,0,0,.673-.457l1.062.749a.756.756,0,0,0,1.076-.188l.939-1.319a.811.811,0,0,0-.19-1.089l-.989-.683a5.5,5.5,0,0,0,.26-.771,7.381,7.381,0,0,0,.163-.8l1.272-.222a.772.772,0,0,0,.633-.9l-.279-1.6a.76.76,0,0,0-.316-.5.742.742,0,0,0-.584-.133l-1.165.2a6.49,6.49,0,0,0-.372-.726,5.876,5.876,0,0,0-.456-.666l.746-1.077a.711.711,0,0,0,.137-.572.759.759,0,0,0-.325-.5L40.264,19.3Zm-4.59,4.058a2.819,2.819,0,0,1,1.132.027,2.816,2.816,0,0,1,1.755,1.234,2.894,2.894,0,0,1,.382,2.19,2.822,2.822,0,0,1-1.234,1.754,2.892,2.892,0,0,1-2.189.382,2.819,2.819,0,0,1-1.755-1.233,2.9,2.9,0,0,1-.382-2.189,2.812,2.812,0,0,1,1.234-1.755,2.831,2.831,0,0,1,1.057-.409ZM14.485,8.715a5.727,5.727,0,0,1,2.249.449,5.688,5.688,0,0,1,3.071,3.07,5.862,5.862,0,0,1,0,4.5,5.687,5.687,0,0,1-3.071,3.071,5.861,5.861,0,0,1-4.5,0,5.694,5.694,0,0,1-3.071-3.071,5.862,5.862,0,0,1,0-4.5,5.7,5.7,0,0,1,3.071-3.07,5.732,5.732,0,0,1,2.25-.449Z" fill="#1a1a1a"/>
</svg>
