<svg xmlns="http://www.w3.org/2000/svg" xmlns:xlink="http://www.w3.org/1999/xlink" viewBox="0 0 1027.07 567.18"><defs><style>.cls-1{fill:none;}.cls-2{fill:#fff;}.cls-3{clip-path:url(#clip-path);}.cls-4{clip-path:url(#clip-path-2);}.cls-5{clip-path:url(#clip-path-3);}.cls-6{clip-path:url(#clip-path-4);}</style><clipPath id="clip-path" transform="translate(-0.46)"><rect id="SVGID" class="cls-1" y="368.49" width="284.65" height="198.67"/></clipPath><clipPath id="clip-path-2" transform="translate(-0.46)"><rect id="SVGID-2" data-name="SVGID" class="cls-1" x="748.65" y="368.49" width="279.35" height="198.67"/></clipPath><clipPath id="clip-path-3" transform="translate(-0.46)"><rect id="SVGID-3" data-name="SVGID" class="cls-1" x="260.65" y="297.83" width="510.67" height="269.36"/></clipPath><clipPath id="clip-path-4" transform="translate(-0.46)"><rect id="SVGID-4" data-name="SVGID" class="cls-1" x="377.77" width="278.67" height="277.31"/></clipPath></defs><title>Recurso 2users</title><g id="Capa_2" data-name="Capa 2"><g id="Capa_1-2" data-name="Capa 1"><path class="cls-2" d="M188.64,353.32a98.59,98.59,0,0,0,28.49-4.13,99.06,99.06,0,0,0,26.1-12.14,102.2,102.2,0,0,0,12.1-8.68c1.1-.92,2.22-1.87,3.25-2.82l.05-.05q3.44-3.12,6.58-6.55t6-7.13q2.82-3.69,5.29-7.63T281,296.1q2.1-4.14,3.82-8.46t3-8.78c.88-3,1.62-6,2.23-9s1.07-6.1,1.39-9.17.52-6.18.56-9.27,0-6.2-.28-9.29-.61-6.16-1.12-9.21-1.17-6.09-2-9.08-1.72-6-2.77-8.87-2.25-5.77-3.57-8.57-2.76-5.54-4.33-8.22-3.25-5.26-5.06-7.79-3.72-5-5.74-7.29-4.15-4.6-6.38-6.75-4.55-4.2-7-6.14-4.91-3.77-7.49-5.48-5.24-3.31-8-4.78-5.52-2.82-8.37-4-5.75-2.3-8.69-3.26-5.94-1.77-9-2.46-6.07-1.23-9.14-1.63-6.16-.68-9.25-.8-6.19-.12-9.29,0-6.17.45-9.24.89-6.11,1-9.13,1.72-6,1.56-8.93,2.54-5.82,2.1-8.66,3.35-5.61,2.61-8.32,4.11-5.36,3.11-7.92,4.85-5.05,3.59-7.45,5.56-4.69,4-6.9,6.2-4.32,4.44-6.32,6.81-3.9,4.81-5.68,7.35-3.44,5.15-5,7.83-3,5.44-4.25,8.26-2.46,5.68-3.49,8.6-1.92,5.89-2.68,8.89-1.39,6-1.88,9.1-.83,6.14-1,9.23-.27,6.18-.19,9.28.29,6.19.64,9.27.85,6.13,1.49,9.17,1.4,6,2.3,9,2,5.88,3.12,8.75c.88,2.36,1.86,4.68,2.92,7s2.2,4.54,3.43,6.73,2.54,4.36,3.94,6.46,2.86,4.15,4.41,6.14,3.17,3.91,4.87,5.78,3.45,3.67,5.28,5.41,3.73,3.39,5.68,5,4,3.1,6,4.54,4.19,2.79,6.37,4.07,4.4,2.47,6.66,3.58,4.57,2.12,6.91,3.05,4.72,1.78,7.13,2.54,4.84,1.41,7.29,2,4.93,1.05,7.43,1.43,5,.66,7.51.86S186.12,353.32,188.64,353.32Z" transform="translate(-0.46)"/><g class="cls-3"><path class="cls-2" d="M282.74,395.41c.37-.55.74-1.08,1.12-1.62a188.43,188.43,0,0,0-76.05-24.12q-8.87-.82-17.95-.84-4.53,0-9,.21c-3,.15-6,.36-9,.65s-6,.64-9,1.08-6,.92-8.92,1.5-5.9,1.21-8.83,1.92-5.84,1.49-8.73,2.35-5.76,1.77-8.61,2.75-5.67,2-8.47,3.17S113.7,384.77,111,386s-5.44,2.57-8.12,4-5.32,2.84-7.93,4.35-5.18,3.08-7.72,4.71-5,3.33-7.48,5.08-4.86,3.56-7.23,5.43-4.68,3.79-7,5.77-4.5,4-6.68,6.09-4.3,4.22-6.38,6.41-4.1,4.42-6.06,6.7-3.88,4.61-5.74,7-3.67,4.8-5.4,7.25-3.43,5-5.06,7.5S27,461.37,25.52,464s-2.94,5.27-4.31,7.95-2.68,5.4-3.93,8.15-2.42,5.51-3.54,8.32-2.15,5.63-3.13,8.48-1.89,5.72-2.72,8.62-1.61,5.81-2.32,8.74-1.33,5.88-1.89,8.84S2.64,529,2.21,532s-.76,6-1,9-.48,6-.62,9c0,1-.07,2-.1,3a23.8,23.8,0,0,0,1.78,3,25.4,25.4,0,0,0,2.18,2.78A26.73,26.73,0,0,0,7,561.23a26.31,26.31,0,0,0,2.86,2.07A26.7,26.7,0,0,0,13,565a28,28,0,0,0,3.32,1.2,25.47,25.47,0,0,0,3.45.72,24.54,24.54,0,0,0,3.53.24H236q-.57-8.91-.58-18a272.34,272.34,0,0,1,47.32-153.72Z" transform="translate(-0.46)"/></g><path class="cls-2" d="M800.86,344.08a102.11,102.11,0,0,0,40.87,8A101.25,101.25,0,0,0,855.65,351a104,104,0,0,0,13.64-3,100.51,100.51,0,0,0,13.11-4.84A102,102,0,0,0,906,328.36c1.1-.91,2.22-1.86,3.25-2.82l0-.05c1.36-1.22,2.68-2.49,4-3.79s2.53-2.63,3.74-4,2.38-2.77,3.52-4.2,2.24-2.89,3.29-4.38,2.08-3,3.06-4.55,1.91-3.11,2.8-4.7,1.74-3.21,2.55-4.85,1.57-3.3,2.29-5,1.38-3.38,2-5.1,1.21-3.45,1.74-5.19,1-3.51,1.46-5.28.83-3.56,1.17-5.36.64-3.59.89-5.4.45-3.63.59-5.44.25-3.65.3-5.48.06-3.65,0-5.48-.14-3.64-.28-5.47-.34-3.63-.58-5.44-.53-3.62-.87-5.42-.72-3.57-1.16-5.35-.91-3.54-1.44-5.29-1.1-3.48-1.72-5.19-1.29-3.42-2-5.1-1.47-3.35-2.27-5-1.65-3.26-2.54-4.86-1.82-3.16-2.79-4.71-2-3.07-3-4.56-2.14-3-3.28-4.39-2.3-2.84-3.51-4.21-2.45-2.71-3.73-4-2.59-2.57-3.94-3.8-2.73-2.44-4.14-3.6-2.85-2.28-4.32-3.36-3-2.12-4.5-3.13-3.08-2-4.66-2.88-3.18-1.8-4.8-2.63-3.28-1.62-4.95-2.36-3.35-1.45-5.06-2.1-3.43-1.26-5.16-1.82-3.5-1.08-5.26-1.55-3.54-.89-5.33-1.26-3.59-.69-5.39-1-3.62-.51-5.44-.69-3.64-.31-5.46-.39-3.65-.11-5.48-.09-3.65.08-5.47.19-3.65.28-5.46.49-3.62.47-5.42.78-3.59.67-5.37,1.07-3.56.86-5.31,1.36-3.5,1-5.23,1.64-3.44,1.23-5.13,1.92-3.37,1.41-5,2.18-3.28,1.6-4.89,2.46-3.2,1.77-4.76,2.71-3.1,1.94-4.61,3-3,2.1-4.44,3.21-2.87,2.25-4.26,3.44-2.75,2.41-4.07,3.66-2.62,2.55-3.87,3.88-2.48,2.69-3.66,4.08-2.33,2.81-3.44,4.27-2.17,2.93-3.2,4.44-2,3.05-3,4.62-1.85,3.15-2.71,4.76-1.67,3.25-2.44,4.9-1.5,3.33-2.19,5-1.31,3.41-1.9,5.14-1.13,3.47-1.63,5.22-.95,3.54-1.35,5.32-.75,3.57-1.06,5.37-.56,3.61-.77,5.42-.37,3.64-.48,5.46-.18,3.65-.19,5.48,0,3.65.11,5.48.22,3.64.4,5.46.41,3.63.69,5.44.61,3.6,1,5.39.79,3.56,1.27,5.32,1,3.52,1.55,5.26,1.18,3.46,1.83,5.16,1.36,3.39,2.11,5.06,1.54,3.31,2.38,4.94,1.71,3.22,2.63,4.8,1.88,3.13,2.89,4.65,2.05,3,3.13,4.49,2.21,2.92,3.37,4.33,2.37,2.78,3.6,4.13,2.51,2.65,3.81,3.93,2.65,2.52,4,3.72,2.78,2.37,4.22,3.5,2.9,2.23,4.39,3.28,3,2.06,4.57,3,3.12,1.9,4.71,2.78,3.22,1.73,4.86,2.53,3.31,1.55,5,2.26Z" transform="translate(-0.46)"/><g class="cls-4"><path class="cls-2" d="M858.52,369.67q-8.88-.82-17.95-.84a188.29,188.29,0,0,0-91.35,23.45A272.3,272.3,0,0,1,798.7,549.11q0,9.07-.59,18h204c.83,0,1.67,0,2.49-.12a23,23,0,0,0,2.47-.37,25.48,25.48,0,0,0,7-2.52,23.26,23.26,0,0,0,2.14-1.28,26.53,26.53,0,0,0,3.85-3.16c.59-.59,1.15-1.21,1.68-1.85a24,24,0,0,0,1.48-2,24.79,24.79,0,0,0,1.29-2.14c.39-.74.75-1.49,1.07-2.26s.6-1.56.84-2.35.45-1.61.61-2.42.28-1.64.36-2.47.13-1.66.13-2.49V527.36A189.67,189.67,0,0,0,858.52,369.67Z" transform="translate(-0.46)"/></g><g class="cls-5"><path class="cls-2" d="M541.35,299.85q-12-1.12-24.3-1.13A256.24,256.24,0,0,0,306.36,408.9l-.65.94A254.87,254.87,0,0,0,260.79,544c-.06,1.33-.11,2.65-.14,4a32.77,32.77,0,0,0,2.4,4.14,33.54,33.54,0,0,0,2.95,3.77,34.22,34.22,0,0,0,7.32,6.12,32.91,32.91,0,0,0,4.23,2.24,34.07,34.07,0,0,0,4.5,1.64,35.73,35.73,0,0,0,4.68,1,34.69,34.69,0,0,0,4.78.33H735.7c1.13,0,2.25-.06,3.37-.16s2.24-.29,3.35-.5,2.19-.5,3.27-.83,2.14-.71,3.19-1.14,2-.91,3-1.44,2-1.12,2.9-1.74,1.84-1.3,2.71-2,1.7-1.47,2.5-2.27a31.73,31.73,0,0,0,2.27-2.51,31.12,31.12,0,0,0,2-2.71,32.71,32.71,0,0,0,1.74-2.9c.53-1,1-2,1.45-3.05s.81-2.1,1.14-3.18.6-2.17.82-3.28.38-2.22.5-3.34.17-2.25.17-3.38V513.3q-.87-5.19-1.94-10.34t-2.35-10.25q-1.29-5.1-2.77-10.14t-3.19-10q-1.7-5-3.59-9.88t-4-9.73c-1.39-3.22-2.86-6.4-4.38-9.55s-3.13-6.29-4.78-9.37-3.38-6.15-5.16-9.17-3.63-6-5.53-8.94-3.87-5.85-5.89-8.71-4.11-5.68-6.24-8.46-4.34-5.51-6.59-8.2-4.55-5.33-6.91-7.92-4.77-5.14-7.24-7.63-5-4.94-7.53-7.33-5.18-4.73-7.84-7-5.36-4.52-8.11-6.69-5.55-4.29-8.39-6.35-5.71-4.06-8.63-6-5.88-3.82-8.87-5.64-6-3.58-9.1-5.27-6.17-3.33-9.3-4.9-6.3-3.07-9.5-4.51-6.42-2.81-9.68-4.11-6.53-2.55-9.83-3.72-6.63-2.28-10-3.31-6.72-2-10.11-2.9-6.79-1.72-10.22-2.48-6.85-1.45-10.31-2.07-6.91-1.16-10.38-1.63S544.84,300.19,541.35,299.85Z" transform="translate(-0.46)"/></g><g class="cls-6"><path class="cls-2" d="M463.08,266a136.27,136.27,0,0,0,27.05,8.25,139.29,139.29,0,0,0,53.37,0,137.7,137.7,0,0,0,61.93-29.52q2.22-1.86,4.44-3.83l.06-.06a137.7,137.7,0,0,0,10.14-10.22,135.08,135.08,0,0,0,9-11.22,138.72,138.72,0,0,0,7.81-12.11,136.87,136.87,0,0,0,6.5-12.85,138.31,138.31,0,0,0,8.83-27.37,137.09,137.09,0,0,0,2.23-14.23,135.56,135.56,0,0,0,.74-14.39A138.37,138.37,0,0,0,516.83,0c-4,0-7.9.17-11.85.51s-7.86.85-11.76,1.52-7.76,1.52-11.58,2.53-7.6,2.17-11.33,3.5-7.39,2.82-11,4.47S452.2,16,448.76,17.91s-6.81,4-10.07,6.27-6.43,4.61-9.49,7.11-6,5.14-8.85,7.9-5.55,5.63-8.14,8.62-5,6.09-7.37,9.29-4.51,6.5-6.55,9.89-3.94,6.86-5.68,10.42-3.33,7.17-4.77,10.86-2.7,7.42-3.81,11.22S382,107.13,381.18,111s-1.4,7.78-1.85,11.71-.73,7.87-.84,11.83-.05,7.91.18,11.86.62,7.88,1.18,11.8,1.31,7.8,2.2,11.65,2,7.67,3.19,11.43,2.61,7.46,4.15,11.11,3.24,7.21,5.09,10.71,3.84,6.91,6,10.24,4.43,6.56,6.84,9.69,5,6.15,7.65,9.06,5.47,5.71,8.39,8.38,5.94,5.22,9.08,7.63,6.37,4.69,9.69,6.83,6.75,4.13,10.25,6S459.44,264.44,463.08,266Z" transform="translate(-0.46)"/></g></g></g></svg>