<svg xmlns="http://www.w3.org/2000/svg" xmlns:xlink="http://www.w3.org/1999/xlink" width="1080" zoomAndPan="magnify" viewBox="0 0 810 809.999993" height="1080" preserveAspectRatio="xMidYMid meet" version="1.0"><defs><clipPath id="4bf521274c"><path d="M 19.515625 469 L 233 469 L 233 618 L 19.515625 618 Z M 19.515625 469 " clip-rule="nonzero"/></clipPath><clipPath id="902b4e8dfc"><path d="M 581 469 L 790.515625 469 L 790.515625 618 L 581 618 Z M 581 469 " clip-rule="nonzero"/></clipPath><clipPath id="3fd3adc493"><path d="M 303 192.019531 L 512 192.019531 L 512 400 L 303 400 Z M 303 192.019531 " clip-rule="nonzero"/></clipPath><clipPath id="4ebab85802"><path d="M 215 416 L 598 416 L 598 618.019531 L 215 618.019531 Z M 215 416 " clip-rule="nonzero"/></clipPath></defs><rect x="-81" width="972" fill="#ffffff" y="-80.999999" height="971.999992" fill-opacity="1"/><rect x="-81" width="972" fill="#ffffff" y="-80.999999" height="971.999992" fill-opacity="1"/><path fill="#000000" d="M 160.996094 457.621094 C 164.613281 457.625 168.210938 457.367188 171.792969 456.851562 C 175.371094 456.332031 178.894531 455.554688 182.363281 454.519531 C 185.828125 453.488281 189.203125 452.210938 192.484375 450.683594 C 195.761719 449.160156 198.914062 447.402344 201.941406 445.417969 C 205.121094 443.46875 208.148438 441.296875 211.011719 438.90625 C 211.839844 438.21875 212.675781 437.507812 213.453125 436.789062 L 213.488281 436.753906 C 215.207031 435.191406 216.851562 433.554688 218.421875 431.839844 C 219.992188 430.125 221.480469 428.34375 222.886719 426.496094 C 224.296875 424.648438 225.617188 422.738281 226.851562 420.769531 C 228.085938 418.800781 229.230469 416.78125 230.28125 414.707031 C 231.332031 412.632812 232.285156 410.515625 233.144531 408.359375 C 234.003906 406.199219 234.761719 404.003906 235.417969 401.773438 C 236.078125 399.546875 236.632812 397.292969 237.089844 395.011719 C 237.542969 392.734375 237.890625 390.4375 238.136719 388.128906 C 238.382812 385.816406 238.523438 383.5 238.554688 381.175781 C 238.589844 378.851562 238.519531 376.53125 238.34375 374.214844 C 238.167969 371.894531 237.886719 369.589844 237.5 367.300781 C 237.113281 365.007812 236.625 362.738281 236.03125 360.492188 C 235.4375 358.246094 234.746094 356.027344 233.953125 353.84375 C 233.15625 351.660156 232.265625 349.515625 231.277344 347.414062 C 230.289062 345.308594 229.207031 343.257812 228.03125 341.25 C 226.855469 339.246094 225.589844 337.300781 224.238281 335.410156 C 222.886719 333.519531 221.449219 331.695312 219.929688 329.9375 C 218.414062 328.175781 216.816406 326.492188 215.144531 324.875 C 213.472656 323.261719 211.730469 321.726562 209.917969 320.273438 C 208.109375 318.816406 206.234375 317.445312 204.296875 316.160156 C 202.363281 314.875 200.371094 313.679688 198.328125 312.578125 C 196.28125 311.472656 194.191406 310.460938 192.054688 309.546875 C 189.917969 308.632812 187.742188 307.820312 185.535156 307.101562 C 183.324219 306.386719 181.082031 305.773438 178.816406 305.257812 C 176.550781 304.746094 174.265625 304.335938 171.960938 304.03125 C 169.65625 303.726562 167.34375 303.527344 165.023438 303.433594 C 162.699219 303.339844 160.378906 303.347656 158.058594 303.464844 C 155.738281 303.582031 153.425781 303.804688 151.125 304.128906 C 148.824219 304.457031 146.542969 304.886719 144.28125 305.421875 C 142.019531 305.953125 139.789062 306.589844 137.582031 307.328125 C 135.378906 308.066406 133.214844 308.902344 131.085938 309.835938 C 128.957031 310.769531 126.875 311.796875 124.84375 312.921875 C 122.808594 314.042969 120.828125 315.257812 118.90625 316.5625 C 116.980469 317.863281 115.121094 319.253906 113.320312 320.726562 C 111.523438 322.199219 109.796875 323.75 108.140625 325.378906 C 106.484375 327.007812 104.902344 328.710938 103.402344 330.484375 C 101.898438 332.257812 100.480469 334.09375 99.144531 335.996094 C 97.8125 337.898438 96.566406 339.859375 95.410156 341.875 C 94.25 343.890625 93.1875 345.953125 92.21875 348.066406 C 91.25 350.175781 90.378906 352.328125 89.605469 354.519531 C 88.832031 356.710938 88.160156 358.933594 87.589844 361.1875 C 87.015625 363.441406 86.550781 365.714844 86.183594 368.007812 C 85.820312 370.304688 85.558594 372.613281 85.40625 374.929688 C 85.25 377.25 85.199219 379.570312 85.257812 381.894531 C 85.3125 384.21875 85.476562 386.535156 85.742188 388.84375 C 86.007812 391.152344 86.378906 393.441406 86.855469 395.71875 C 87.328125 397.992188 87.90625 400.242188 88.585938 402.464844 C 89.265625 404.6875 90.046875 406.871094 90.925781 409.023438 C 91.585938 410.796875 92.316406 412.539062 93.109375 414.253906 C 93.90625 415.972656 94.765625 417.65625 95.6875 419.304688 C 96.609375 420.957031 97.59375 422.570312 98.640625 424.148438 C 99.683594 425.722656 100.785156 427.257812 101.949219 428.75 C 103.109375 430.242188 104.324219 431.6875 105.597656 433.089844 C 106.867188 434.488281 108.191406 435.839844 109.5625 437.140625 C 110.9375 438.441406 112.359375 439.6875 113.824219 440.878906 C 115.292969 442.070312 116.804688 443.207031 118.359375 444.285156 C 119.914062 445.363281 121.503906 446.378906 123.136719 447.335938 C 124.769531 448.292969 126.433594 449.1875 128.132812 450.019531 C 129.832031 450.847656 131.558594 451.613281 133.316406 452.3125 C 135.074219 453.011719 136.855469 453.644531 138.660156 454.210938 C 140.464844 454.773438 142.289062 455.269531 144.128906 455.695312 C 145.972656 456.121094 147.828125 456.476562 149.699219 456.761719 C 151.566406 457.046875 153.445312 457.261719 155.332031 457.40625 C 157.214844 457.546875 159.105469 457.621094 160.996094 457.621094 Z M 160.996094 457.621094 " fill-opacity="1" fill-rule="nonzero"/><g clip-path="url(#4bf521274c)"><path fill="#000000" d="M 231.570312 489.1875 C 231.847656 488.777344 232.125 488.375 232.410156 487.96875 C 223.660156 482.953125 214.476562 478.917969 204.863281 475.871094 C 195.246094 472.820312 185.417969 470.824219 175.375 469.882812 C 170.9375 469.46875 166.449219 469.257812 161.910156 469.25 C 159.648438 469.25 157.390625 469.304688 155.132812 469.410156 C 152.875 469.519531 150.621094 469.679688 148.371094 469.894531 C 146.117188 470.109375 143.875 470.378906 141.636719 470.703125 C 139.398438 471.023438 137.171875 471.398438 134.949219 471.828125 C 132.730469 472.257812 130.523438 472.738281 128.324219 473.273438 C 126.128906 473.804688 123.945312 474.390625 121.777344 475.03125 C 119.609375 475.667969 117.457031 476.359375 115.320312 477.097656 C 113.183594 477.839844 111.066406 478.632812 108.96875 479.472656 C 106.871094 480.316406 104.792969 481.207031 102.738281 482.148438 C 100.683594 483.089844 98.652344 484.082031 96.644531 485.117188 C 94.632812 486.15625 92.652344 487.242188 90.695312 488.375 C 88.738281 489.507812 86.8125 490.6875 84.910156 491.910156 C 83.011719 493.136719 81.140625 494.40625 79.300781 495.71875 C 77.460938 497.035156 75.652344 498.390625 73.878906 499.792969 C 72.105469 501.191406 70.363281 502.632812 68.65625 504.117188 C 66.953125 505.601562 65.28125 507.125 63.648438 508.6875 C 62.015625 510.25 60.421875 511.851562 58.863281 513.492188 C 57.308594 515.132812 55.789062 516.808594 54.3125 518.519531 C 52.835938 520.230469 51.402344 521.976562 50.007812 523.757812 C 48.613281 525.539062 47.261719 527.351562 45.957031 529.195312 C 44.648438 531.039062 43.386719 532.914062 42.167969 534.820312 C 40.953125 536.722656 39.78125 538.65625 38.65625 540.617188 C 37.53125 542.578125 36.453125 544.566406 35.421875 546.578125 C 34.390625 548.589844 33.410156 550.625 32.476562 552.6875 C 31.542969 554.746094 30.660156 556.824219 29.824219 558.925781 C 28.992188 561.027344 28.207031 563.148438 27.472656 565.289062 C 26.742188 567.425781 26.058594 569.582031 25.429688 571.753906 C 24.800781 573.925781 24.222656 576.109375 23.695312 578.308594 C 23.171875 580.507812 22.699219 582.71875 22.277344 584.9375 C 21.859375 587.160156 21.492188 589.390625 21.175781 591.628906 C 20.863281 593.867188 20.601562 596.113281 20.398438 598.367188 C 20.191406 600.617188 20.039062 602.871094 19.9375 605.132812 C 19.90625 605.863281 19.882812 606.59375 19.859375 607.347656 C 20.253906 608.144531 20.695312 608.90625 21.195312 609.636719 C 21.691406 610.371094 22.238281 611.0625 22.832031 611.71875 C 23.425781 612.375 24.066406 612.984375 24.746094 613.550781 C 25.425781 614.117188 26.140625 614.636719 26.890625 615.101562 C 27.644531 615.570312 28.425781 615.980469 29.234375 616.339844 C 30.042969 616.695312 30.875 616.996094 31.722656 617.238281 C 32.574219 617.480469 33.441406 617.664062 34.316406 617.785156 C 35.191406 617.90625 36.074219 617.964844 36.957031 617.964844 L 196.503906 617.964844 C 196.21875 613.503906 196.070312 609 196.066406 604.460938 C 196.058594 594.234375 196.8125 584.070312 198.328125 573.957031 C 199.84375 563.847656 202.105469 553.90625 205.113281 544.132812 C 208.121094 534.363281 211.84375 524.871094 216.273438 515.65625 C 220.707031 506.445312 225.800781 497.613281 231.558594 489.167969 Z M 231.570312 489.1875 " fill-opacity="1" fill-rule="nonzero"/></g><path fill="#000000" d="M 620.164062 450.6875 C 623.390625 452.042969 626.695312 453.171875 630.074219 454.078125 C 633.457031 454.980469 636.882812 455.652344 640.355469 456.085938 C 643.828125 456.519531 647.3125 456.71875 650.8125 456.675781 C 654.3125 456.636719 657.792969 456.355469 661.253906 455.839844 C 664.714844 455.324219 668.125 454.570312 671.484375 453.589844 C 674.84375 452.605469 678.117188 451.398438 681.3125 449.964844 C 684.503906 448.535156 687.585938 446.894531 690.554688 445.039062 C 693.523438 443.1875 696.355469 441.140625 699.042969 438.902344 C 699.871094 438.214844 700.707031 437.503906 701.484375 436.78125 L 701.515625 436.75 C 702.53125 435.828125 703.519531 434.878906 704.480469 433.902344 C 705.441406 432.929688 706.378906 431.929688 707.285156 430.902344 C 708.195312 429.875 709.074219 428.828125 709.929688 427.753906 C 710.78125 426.683594 711.605469 425.589844 712.398438 424.472656 C 713.191406 423.355469 713.953125 422.21875 714.6875 421.058594 C 715.421875 419.902344 716.121094 418.726562 716.792969 417.53125 C 717.460938 416.335938 718.097656 415.121094 718.703125 413.894531 C 719.308594 412.664062 719.878906 411.417969 720.417969 410.160156 C 720.953125 408.898438 721.457031 407.625 721.929688 406.335938 C 722.398438 405.050781 722.832031 403.75 723.234375 402.441406 C 723.632812 401.128906 723.996094 399.808594 724.328125 398.480469 C 724.65625 397.148438 724.949219 395.8125 725.207031 394.464844 C 725.464844 393.121094 725.6875 391.769531 725.871094 390.410156 C 726.054688 389.054688 726.207031 387.691406 726.316406 386.328125 C 726.429688 384.960938 726.503906 383.59375 726.542969 382.222656 C 726.582031 380.855469 726.585938 379.484375 726.550781 378.113281 C 726.515625 376.746094 726.445312 375.378906 726.335938 374.011719 C 726.226562 372.644531 726.082031 371.285156 725.902344 369.925781 C 725.722656 368.566406 725.503906 367.214844 725.25 365.867188 C 724.996094 364.523438 724.707031 363.183594 724.382812 361.851562 C 724.058594 360.519531 723.695312 359.199219 723.300781 357.886719 C 722.902344 356.578125 722.472656 355.277344 722.007812 353.988281 C 721.542969 352.699219 721.042969 351.425781 720.507812 350.164062 C 719.972656 348.902344 719.40625 347.65625 718.804688 346.421875 C 718.203125 345.191406 717.570312 343.976562 716.902344 342.78125 C 716.238281 341.582031 715.539062 340.40625 714.808594 339.246094 C 714.082031 338.085938 713.320312 336.945312 712.53125 335.824219 C 711.738281 334.707031 710.921875 333.609375 710.070312 332.535156 C 709.222656 331.460938 708.34375 330.40625 707.4375 329.378906 C 706.535156 328.351562 705.601562 327.347656 704.640625 326.371094 C 703.683594 325.390625 702.695312 324.441406 701.6875 323.515625 C 700.675781 322.589844 699.640625 321.691406 698.582031 320.820312 C 697.523438 319.953125 696.445312 319.109375 695.339844 318.300781 C 694.234375 317.488281 693.113281 316.707031 691.964844 315.953125 C 690.820312 315.203125 689.65625 314.480469 688.472656 313.792969 C 687.289062 313.105469 686.085938 312.445312 684.867188 311.820312 C 683.648438 311.199219 682.410156 310.605469 681.160156 310.046875 C 679.910156 309.488281 678.644531 308.964844 677.363281 308.472656 C 676.085938 307.984375 674.792969 307.527344 673.492188 307.105469 C 672.1875 306.683594 670.871094 306.296875 669.546875 305.945312 C 668.222656 305.597656 666.890625 305.28125 665.550781 305 C 664.207031 304.722656 662.859375 304.480469 661.507812 304.273438 C 660.152344 304.066406 658.792969 303.894531 657.429688 303.757812 C 656.066406 303.625 654.699219 303.527344 653.332031 303.464844 C 651.960938 303.40625 650.59375 303.382812 649.222656 303.394531 C 647.851562 303.40625 646.484375 303.453125 645.117188 303.539062 C 643.75 303.625 642.386719 303.75 641.023438 303.90625 C 639.664062 304.066406 638.308594 304.261719 636.957031 304.492188 C 635.609375 304.726562 634.265625 304.992188 632.929688 305.296875 C 631.59375 305.597656 630.265625 305.9375 628.949219 306.3125 C 627.628906 306.6875 626.324219 307.097656 625.027344 307.542969 C 623.730469 307.988281 622.449219 308.46875 621.179688 308.980469 C 619.90625 309.492188 618.652344 310.042969 617.410156 310.621094 C 616.171875 311.203125 614.945312 311.816406 613.738281 312.464844 C 612.53125 313.109375 611.339844 313.789062 610.167969 314.5 C 608.996094 315.210938 607.847656 315.949219 606.714844 316.722656 C 605.582031 317.496094 604.472656 318.296875 603.382812 319.128906 C 602.292969 319.960938 601.230469 320.820312 600.1875 321.710938 C 599.144531 322.597656 598.125 323.515625 597.132812 324.457031 C 596.136719 325.402344 595.171875 326.371094 594.230469 327.367188 C 593.289062 328.359375 592.371094 329.382812 591.484375 330.425781 C 590.597656 331.46875 589.742188 332.535156 588.910156 333.628906 C 588.082031 334.71875 587.28125 335.828125 586.511719 336.960938 C 585.742188 338.097656 585.003906 339.25 584.292969 340.421875 C 583.585938 341.59375 582.910156 342.785156 582.265625 343.996094 C 581.621094 345.203125 581.007812 346.429688 580.429688 347.671875 C 579.851562 348.914062 579.304688 350.167969 578.792969 351.441406 C 578.285156 352.710938 577.804688 353.996094 577.363281 355.292969 C 576.921875 356.589844 576.515625 357.898438 576.140625 359.214844 C 575.769531 360.535156 575.433594 361.863281 575.132812 363.199219 C 574.828125 364.535156 574.566406 365.878906 574.335938 367.230469 C 574.105469 368.582031 573.914062 369.9375 573.757812 371.296875 C 573.601562 372.660156 573.480469 374.023438 573.398438 375.390625 C 573.3125 376.757812 573.265625 378.128906 573.257812 379.496094 C 573.246094 380.867188 573.273438 382.238281 573.335938 383.605469 C 573.402344 384.976562 573.5 386.339844 573.636719 387.703125 C 573.773438 389.066406 573.949219 390.425781 574.15625 391.78125 C 574.367188 393.132812 574.613281 394.480469 574.894531 395.824219 C 575.175781 397.164062 575.492188 398.496094 575.847656 399.820312 C 576.199219 401.144531 576.589844 402.457031 577.011719 403.761719 C 577.4375 405.0625 577.894531 406.355469 578.386719 407.632812 C 578.878906 408.910156 579.40625 410.175781 579.96875 411.425781 C 580.527344 412.675781 581.121094 413.910156 581.75 415.128906 C 582.375 416.347656 583.035156 417.546875 583.726562 418.730469 C 584.417969 419.914062 585.136719 421.078125 585.890625 422.222656 C 586.644531 423.367188 587.429688 424.488281 588.242188 425.589844 C 589.058594 426.691406 589.898438 427.773438 590.769531 428.832031 C 591.644531 429.886719 592.542969 430.921875 593.46875 431.929688 C 594.394531 432.9375 595.351562 433.921875 596.328125 434.878906 C 597.308594 435.835938 598.3125 436.765625 599.34375 437.671875 C 600.375 438.574219 601.425781 439.449219 602.503906 440.296875 C 603.578125 441.144531 604.679688 441.964844 605.800781 442.753906 C 606.917969 443.539062 608.058594 444.296875 609.222656 445.027344 C 610.382812 445.753906 611.5625 446.449219 612.761719 447.113281 C 613.957031 447.777344 615.175781 448.410156 616.40625 449.007812 C 617.640625 449.605469 618.886719 450.171875 620.148438 450.703125 Z M 620.164062 450.6875 " fill-opacity="1" fill-rule="nonzero"/><g clip-path="url(#902b4e8dfc)"><path fill="#000000" d="M 663.40625 469.882812 C 658.96875 469.46875 654.480469 469.257812 649.941406 469.25 C 643.976562 469.242188 638.03125 469.609375 632.113281 470.351562 C 626.195312 471.09375 620.34375 472.207031 614.566406 473.691406 C 608.789062 475.175781 603.128906 477.015625 597.582031 479.214844 C 592.035156 481.414062 586.652344 483.957031 581.429688 486.835938 C 587.441406 495.398438 592.761719 504.367188 597.398438 513.746094 C 602.03125 523.125 605.921875 532.804688 609.070312 542.78125 C 612.21875 552.757812 614.585938 562.917969 616.175781 573.257812 C 617.761719 583.597656 618.550781 594 618.539062 604.460938 C 618.539062 608.996094 618.394531 613.5 618.101562 617.964844 L 771.082031 617.964844 C 771.707031 617.964844 772.332031 617.933594 772.953125 617.871094 C 773.574219 617.808594 774.191406 617.71875 774.804688 617.597656 C 775.417969 617.472656 776.023438 617.324219 776.621094 617.140625 C 777.21875 616.960938 777.804688 616.75 778.382812 616.507812 C 778.960938 616.269531 779.523438 616.003906 780.074219 615.707031 C 780.625 615.414062 781.160156 615.09375 781.679688 614.746094 C 782.199219 614.398438 782.699219 614.027344 783.183594 613.628906 C 783.664062 613.234375 784.128906 612.816406 784.570312 612.375 C 785.011719 611.933594 785.429688 611.46875 785.828125 610.988281 C 786.222656 610.503906 786.59375 610.003906 786.941406 609.484375 C 787.289062 608.964844 787.609375 608.429688 787.90625 607.878906 C 788.199219 607.328125 788.464844 606.761719 788.707031 606.183594 C 788.945312 605.609375 789.15625 605.019531 789.335938 604.421875 C 789.519531 603.824219 789.671875 603.21875 789.792969 602.605469 C 789.914062 601.996094 790.007812 601.378906 790.066406 600.753906 C 790.128906 600.132812 790.160156 599.511719 790.160156 598.886719 L 790.160156 588.152344 C 779.785156 525.050781 727.863281 475.984375 663.40625 469.882812 Z M 663.40625 469.882812 " fill-opacity="1" fill-rule="nonzero"/></g><g clip-path="url(#3fd3adc493)"><path fill="#000000" d="M 366.988281 391.503906 C 373.539062 394.269531 380.300781 396.332031 387.273438 397.695312 C 393.882812 398.980469 400.554688 399.625 407.289062 399.625 C 414.019531 399.625 420.691406 398.980469 427.300781 397.695312 C 435.851562 396.019531 444.058594 393.308594 451.925781 389.558594 C 459.789062 385.8125 467.066406 381.140625 473.75 375.554688 C 474.859375 374.621094 475.96875 373.664062 477.078125 372.679688 L 477.121094 372.636719 C 479.792969 370.214844 482.328125 367.65625 484.730469 364.96875 C 487.136719 362.28125 489.390625 359.476562 491.5 356.550781 C 493.609375 353.628906 495.5625 350.601562 497.355469 347.472656 C 499.152344 344.347656 500.777344 341.132812 502.234375 337.835938 C 503.695312 334.539062 504.976562 331.175781 506.082031 327.742188 C 507.191406 324.3125 508.117188 320.832031 508.859375 317.304688 C 509.601562 313.777344 510.160156 310.21875 510.53125 306.632812 C 510.90625 303.046875 511.089844 299.449219 511.085938 295.84375 C 511.101562 238.492188 464.632812 192.019531 407.300781 192.019531 C 404.332031 192.019531 401.371094 192.148438 398.414062 192.402344 C 395.457031 192.65625 392.519531 193.039062 389.59375 193.542969 C 386.671875 194.050781 383.773438 194.679688 380.902344 195.4375 C 378.035156 196.191406 375.203125 197.066406 372.40625 198.066406 C 369.613281 199.0625 366.863281 200.179688 364.167969 201.414062 C 361.46875 202.644531 358.824219 203.992188 356.242188 205.453125 C 353.660156 206.914062 351.140625 208.480469 348.691406 210.15625 C 346.246094 211.832031 343.871094 213.609375 341.574219 215.488281 C 339.277344 217.367188 337.066406 219.34375 334.9375 221.410156 C 332.8125 223.480469 330.777344 225.636719 328.832031 227.878906 C 326.890625 230.125 325.046875 232.445312 323.304688 234.847656 C 321.5625 237.25 319.925781 239.722656 318.394531 242.265625 C 316.863281 244.804688 315.441406 247.410156 314.132812 250.074219 C 312.824219 252.738281 311.632812 255.453125 310.558594 258.21875 C 309.484375 260.984375 308.527344 263.789062 307.695312 266.636719 C 306.859375 269.484375 306.148438 272.363281 305.558594 275.273438 C 304.972656 278.183594 304.507812 281.109375 304.171875 284.058594 C 303.835938 287.007812 303.625 289.964844 303.542969 292.933594 C 303.460938 295.898438 303.503906 298.863281 303.675781 301.824219 C 303.847656 304.789062 304.144531 307.738281 304.566406 310.675781 C 304.992188 313.613281 305.542969 316.527344 306.214844 319.417969 C 306.890625 322.308594 307.6875 325.164062 308.605469 327.984375 C 309.523438 330.804688 310.5625 333.582031 311.71875 336.316406 C 312.875 339.050781 314.148438 341.726562 315.535156 344.351562 C 316.921875 346.976562 318.417969 349.535156 320.023438 352.03125 C 321.628906 354.527344 323.339844 356.949219 325.152344 359.296875 C 326.96875 361.644531 328.878906 363.914062 330.886719 366.097656 C 332.894531 368.28125 334.992188 370.375 337.179688 372.382812 C 339.367188 374.386719 341.636719 376.292969 343.988281 378.105469 C 346.339844 379.914062 348.765625 381.621094 351.261719 383.222656 C 353.761719 384.824219 356.324219 386.320312 358.949219 387.699219 C 361.574219 389.082031 364.253906 390.351562 366.988281 391.503906 Z M 366.988281 391.503906 " fill-opacity="1" fill-rule="nonzero"/></g><g clip-path="url(#4ebab85802)"><path fill="#000000" d="M 425.53125 417.519531 C 419.53125 416.957031 413.453125 416.671875 407.300781 416.667969 C 341.859375 416.667969 284.046875 449.363281 249.289062 499.304688 L 248.796875 500.007812 C 243.699219 507.394531 239.144531 515.101562 235.132812 523.125 C 231.117188 531.152344 227.6875 539.421875 224.835938 547.929688 C 221.988281 556.4375 219.746094 565.105469 218.117188 573.929688 C 216.488281 582.753906 215.484375 591.652344 215.105469 600.617188 C 215.0625 601.609375 215.027344 602.601562 215 603.59375 C 215.527344 604.671875 216.128906 605.707031 216.800781 606.699219 C 217.472656 607.691406 218.210938 608.632812 219.015625 609.523438 C 219.820312 610.410156 220.683594 611.242188 221.601562 612.011719 C 222.523438 612.78125 223.492188 613.480469 224.507812 614.117188 C 225.527344 614.75 226.582031 615.3125 227.679688 615.796875 C 228.773438 616.285156 229.898438 616.691406 231.050781 617.023438 C 232.207031 617.351562 233.375 617.597656 234.5625 617.765625 C 235.75 617.933594 236.945312 618.015625 238.144531 618.015625 L 571.289062 618.015625 C 572.136719 618.015625 572.980469 617.972656 573.820312 617.890625 C 574.664062 617.804688 575.5 617.679688 576.328125 617.515625 C 577.15625 617.351562 577.976562 617.144531 578.785156 616.898438 C 579.59375 616.652344 580.390625 616.367188 581.171875 616.042969 C 581.953125 615.71875 582.714844 615.359375 583.460938 614.960938 C 584.207031 614.5625 584.933594 614.125 585.636719 613.65625 C 586.339844 613.1875 587.015625 612.683594 587.671875 612.148438 C 588.324219 611.609375 588.949219 611.042969 589.546875 610.445312 C 590.144531 609.847656 590.714844 609.222656 591.25 608.566406 C 591.785156 607.914062 592.289062 607.234375 592.757812 606.53125 C 593.230469 605.828125 593.664062 605.105469 594.0625 604.359375 C 594.460938 603.613281 594.824219 602.847656 595.148438 602.066406 C 595.46875 601.285156 595.753906 600.492188 596 599.683594 C 596.246094 598.871094 596.453125 598.054688 596.617188 597.222656 C 596.785156 596.394531 596.90625 595.558594 596.992188 594.71875 C 597.074219 593.875 597.117188 593.03125 597.117188 592.1875 L 597.117188 577.601562 C 596.6875 575.007812 596.203125 572.421875 595.667969 569.847656 C 595.132812 567.273438 594.542969 564.710938 593.902344 562.160156 C 593.261719 559.613281 592.570312 557.074219 591.824219 554.554688 C 591.078125 552.03125 590.28125 549.527344 589.433594 547.039062 C 588.585938 544.550781 587.6875 542.078125 586.738281 539.628906 C 585.792969 537.175781 584.792969 534.742188 583.742188 532.332031 C 582.695312 529.921875 581.597656 527.53125 580.453125 525.167969 C 579.304688 522.800781 578.109375 520.457031 576.867188 518.140625 C 575.625 515.824219 574.335938 513.535156 573 511.269531 C 571.664062 509.003906 570.28125 506.769531 568.851562 504.5625 C 567.425781 502.355469 565.953125 500.175781 564.433594 498.027344 C 562.917969 495.882812 561.355469 493.765625 559.753906 491.683594 C 558.148438 489.601562 556.503906 487.550781 554.816406 485.535156 C 553.128906 483.519531 551.398438 481.539062 549.628906 479.59375 C 547.859375 477.648438 546.050781 475.742188 544.203125 473.871094 C 542.355469 472 540.472656 470.167969 538.550781 468.375 C 536.628906 466.578125 534.667969 464.828125 532.675781 463.113281 C 530.679688 461.398438 528.652344 459.726562 526.589844 458.097656 C 524.527344 456.46875 522.429688 454.878906 520.300781 453.335938 C 518.175781 451.792969 516.015625 450.292969 513.828125 448.835938 C 511.636719 447.382812 509.417969 445.972656 507.171875 444.605469 C 504.925781 443.242188 502.648438 441.921875 500.347656 440.652344 C 498.046875 439.378906 495.722656 438.15625 493.371094 436.980469 C 491.019531 435.804688 488.644531 434.675781 486.246094 433.597656 C 483.847656 432.519531 481.429688 431.488281 478.988281 430.511719 C 476.550781 429.53125 474.089844 428.601562 471.613281 427.722656 C 469.136719 426.84375 466.640625 426.015625 464.128906 425.238281 C 461.617188 424.464844 459.089844 423.738281 456.546875 423.066406 C 454.007812 422.390625 451.453125 421.773438 448.886719 421.203125 C 446.320312 420.636719 443.742188 420.121094 441.152344 419.65625 C 438.566406 419.195312 435.96875 418.785156 433.363281 418.429688 C 430.757812 418.074219 428.148438 417.769531 425.53125 417.519531 Z M 425.53125 417.519531 " fill-opacity="1" fill-rule="nonzero"/></g></svg>